<?xml version="1.0" encoding="utf-8"?>
<svg version="1.1" id="Layer_1" xmlns="http://www.w3.org/2000/svg" xmlns:xlink="http://www.w3.org/1999/xlink" x="0px" y="0px"
	 viewBox="0 0 100 75" style="enable-background:new 0 0 100 75;" xml:space="preserve">
<style type="text/css">
	.st0{fill:none;stroke:#80C6FF;stroke-width:3;stroke-miterlimit:10;}
	.st1{fill:#80C6FF;}
</style>
<rect id="XMLID_1_" x="1.5" y="1.5" class="st0" width="97" height="72"/>
<line id="XMLID_2_" class="st0" x1="1.5" y1="22" x2="97.5" y2="22"/>
<rect id="XMLID_3_" x="83.8" y="26.3" class="st1" width="10" height="8.5"/>
<rect id="XMLID_4_" x="83.8" y="37.8" class="st1" width="10" height="8.5"/>
<rect id="XMLID_5_" x="83.8" y="49.3" class="st1" width="10" height="8.5"/>
<rect id="XMLID_6_" x="83.8" y="60.8" class="st1" width="10" height="8.5"/>
<rect id="XMLID_10_" x="70.8" y="26.3" class="st1" width="10" height="8.5"/>
<rect id="XMLID_9_" x="70.8" y="37.8" class="st1" width="10" height="8.5"/>
<rect id="XMLID_8_" x="70.8" y="49.3" class="st1" width="10" height="8.5"/>
<rect id="XMLID_7_" x="70.8" y="60.8" class="st1" width="10" height="8.5"/>
<rect id="XMLID_18_" x="57.8" y="26.3" class="st1" width="10" height="8.5"/>
<rect id="XMLID_17_" x="57.8" y="37.8" class="st1" width="10" height="8.5"/>
<rect id="XMLID_16_" x="57.8" y="49.3" class="st1" width="10" height="8.5"/>
<rect id="XMLID_15_" x="57.8" y="60.8" class="st1" width="10" height="8.5"/>
<rect id="XMLID_14_" x="44.8" y="26.3" class="st1" width="10" height="8.5"/>
<rect id="XMLID_13_" x="44.8" y="37.8" class="st1" width="10" height="8.5"/>
<rect id="XMLID_12_" x="44.8" y="49.3" class="st1" width="10" height="8.5"/>
<rect id="XMLID_11_" x="44.8" y="60.8" class="st1" width="10" height="8.5"/>
<rect id="XMLID_26_" x="31.8" y="26.3" class="st1" width="10" height="8.5"/>
<rect id="XMLID_25_" x="31.8" y="37.8" class="st1" width="10" height="8.5"/>
<rect id="XMLID_24_" x="31.8" y="49.3" class="st1" width="10" height="8.5"/>
<rect id="XMLID_23_" x="31.8" y="60.8" class="st1" width="10" height="8.5"/>
<rect id="XMLID_22_" x="18.8" y="26.3" class="st1" width="10" height="8.5"/>
<rect id="XMLID_21_" x="18.8" y="37.8" class="st1" width="10" height="8.5"/>
<rect id="XMLID_20_" x="18.8" y="49.3" class="st1" width="10" height="8.5"/>
<rect id="XMLID_19_" x="18.8" y="60.8" class="st1" width="10" height="8.5"/>
<rect id="XMLID_31_" x="5.8" y="26.3" class="st1" width="10" height="8.5"/>
<rect id="XMLID_30_" x="5.8" y="37.8" class="st1" width="10" height="8.5"/>
<rect id="XMLID_29_" x="5.8" y="49.3" class="st1" width="10" height="8.5"/>
<rect id="XMLID_28_" x="5.8" y="60.8" class="st1" width="10" height="8.5"/>
</svg>
